<svg xmlns:rdf="http://www.w3.org/1999/02/22-rdf-syntax-ns#" xmlns="http://www.w3.org/2000/svg" height="19.799mm" width="163.46mm" version="1.1" xmlns:cc="http://creativecommons.org/ns#" xmlns:dc="http://purl.org/dc/elements/1.1/" viewBox="0 0 579.17224 70.155578">
	<g transform="translate(-60.164 -891.8)" fill="#fff">
		<g transform="scale(1.0545 .94833)">
			<path d="m403.4 951.58q-10.758 0-16.939 6.8853-6.1812 6.8853-6.1812 18.856 0 12.245 5.8291 19.013t16.666 6.768q7.1983 0 13.223-1.8387v3.5209q-5.6726 1.9952-14.162 1.9952-12.049 0-18.974-7.7852-6.9245-7.7851-6.9245-21.751 0-8.724 3.2862-15.375 3.3253-6.6506 9.5065-10.25 6.2203-3.6383 14.436-3.6383 8.3719 0 14.983 3.1297l-1.604 3.5992q-6.2594-3.1297-13.145-3.1297z"/>
			<path d="m453.36 985.81h-23.238l-7.9807 20.187h-4.4207l23.003-57.43h2.5429l22.534 57.43h-4.4989l-7.9416-20.187zm-21.791-3.5992h20.46l-7.7851-20.617q-.97803-2.4255-2.3473-6.7288-1.0563 3.7556-2.3082 6.8071l-8.0198 20.539z"/>
			<path d="m514.34 976.86q0 14.397-7.5504 21.791-7.5504 7.3548-22.182 7.3548h-13.692v-57.195h15.453q13.692 0 20.812 7.1592 7.1592 7.1592 7.1592 20.891zm-4.3424.15649q0-12.284-6.2594-18.465-6.2203-6.2203-18.309-6.2203h-10.524v50.153h9.4673q25.624 0 25.624-25.468z"/>
			<path d="m564.94 976.86q0 14.397-7.5504 21.791-7.5504 7.3548-22.182 7.3548h-13.692v-57.195h15.453q13.692 0 20.812 7.1592 7.1592 7.1592 7.1592 20.891zm-4.3424.15649q0-12.284-6.2594-18.465-6.2203-6.2203-18.309-6.2203h-10.524v50.153h9.4673q25.624 0 25.624-25.468z"/>
			<path d="m585.25 980.1 16.744-31.297h4.3033l-19.052 35.092v22.103h-4.1077v-21.79l-19.13-35.405h4.5772l16.666 31.297z"/>
		</g>
		<g transform="matrix(1.315 0 0 1.315 -1038.4 445.92)">
			<path style="color:#000000;text-indent:0;block-progression:tb;text-decoration-line:none;text-transform:none" d="m1045.2 339.08c-10.192 0-20.836 8.2351-23.819 18.343l-4.9175 16.665c-2.9826 10.108 2.8012 18.343 12.994 18.343h16.656c10.192 0 20.836-8.2351 23.819-18.343l4.9175-16.665c2.9826-10.108-2.8012-18.343-12.994-18.343h-16.656zm-.7253 2.4577h16.656c8.7589 0 13.766 7.0421 11.156 15.885l-4.9175 16.665c-2.6094 8.8432-11.772 15.885-20.531 15.885h-16.656c-8.7589 0-13.766-7.0421-11.156-15.885l4.9175-16.665c2.6094-8.8432 11.772-15.885 20.531-15.885z"/>
			<g transform="matrix(2.5618 0 0 2.5618 -1556.5 131.33)">
				<path d="m1009.3 97.761c.03-.60776.1611-1.1863.4473-1.7279.1122-.21230.2449-.41309.3673-.61964.9468-1.4879 2.0556-2.881 3.3571-4.0757.3137-.28796.6463-.55472.9694-.83207 1.911-1.5232 4.0535-2.7191 6.2507-3.7732.5911-.27739 1.2018-.50630 1.8174-.72166l1.9416.24631c-.6663.19418-1.3278.40441-1.966.68043-.306.13560-.615.2649-.9181.40680-1.9199.89863-3.7584 1.9885-5.4193 3.3084-.7859.67940-1.1013.91473-1.8059 1.6683-.9022.96481-1.6674 2.0495-2.3311 3.1891-.3996.76324-.719 1.3691-.6085 2.2509h-2.1019z"/>
				<path d="m1011.1 97.761c.071-.76014.3558-1.4816.6618-2.1736.4326-.85830 1.0144-1.6394 1.6963-2.3166.5019-.49839.8095-.72268 1.3612-1.1677 1.3633-1.0602 2.8504-1.9509 4.3931-2.7222.6691-.33806 1.3687-.60656 2.0706-.86674l1.9675.24466c-.7369.23898-1.4696.49511-2.1686.83207-1.5639.73834-3.074 1.6075-4.4379 2.6756-.5585.44866-.8257.63759-1.3294 1.1422-.6556.65698-1.2026 1.4211-1.6017 2.259-.2814.65376-.5691 1.3669-.5068 2.0932h-2.1061z"/>
				<path d="m1007.9 97.761c.029-.53160.038-1.0602.1538-1.5832.032-.14504.076-.28717.114-.43076.3884-1.158 1.0287-2.2087 1.6402-3.2588.7323-1.1921 1.6082-2.2842 2.5193-3.3425.3712-.43529.7661-.84862 1.1597-1.2633l2.014.15887c-.4276.40419-.8583.80532-1.2517 1.2439-.9375 1.0301-1.8261 2.1112-2.5551 3.3014-.584 1.0333-1.1769 2.0762-1.5426 3.2108-.035.13749-.076.27345-.1047.41247-.1039.51188-.1033 1.0334-.053 1.5511h-2.0935z"/>
			</g>
		</g>
		<path d="m78.732 934.92q0 3.7628-2.7759 5.963-2.7553 2.2001-7.3406 2.2001-5.5106 0-8.451-1.2132v-2.0973q3.2488 1.3777 8.2865 1.3777 3.7012 0 5.8602-1.6861 2.1796-1.7066 2.1796-4.4619 0-1.7066-.71967-2.817-.71967-1.1309-2.3441-2.0562-1.6244-.92529-4.7704-1.9945-4.6059-1.5833-6.3742-3.4133-1.7478-1.8506-1.7478-4.9143 0-3.3722 2.6319-5.49 2.6525-2.1384 6.806-2.1384 4.2358 0 7.9575 1.6038l-.76079 1.8094q-3.7423-1.5627-7.1556-1.5627-3.331 0-5.305 1.5422t-1.974 4.1946q0 1.6655.59630 2.7347.61686 1.0692 1.9945 1.9328 1.3777.84304 4.7293 2.0356 3.5161 1.2132 5.2844 2.3646 1.7683 1.1309 2.5702 2.5908.82248 1.4393.82248 3.4955z"/>
		<path d="m93.598 943.08q-4.8732 0-7.6079-3.002-2.7142-3.002-2.7142-8.4098 0-5.3461 2.6319-8.5538 2.6319-3.2282 7.0939-3.2282 3.9479 0 6.2303 2.7553t2.2824 7.4846v1.645h-16.1q.04112 4.6059 2.1384 7.0322 2.1179 2.4263 6.0452 2.4263 1.9123 0 3.3516-.2673 1.4599-.26731 3.6806-1.1515v1.8506q-1.8917.82248-3.4955 1.1103-1.6038.30843-3.5367.30843zm-.596-21.38q-3.2282 0-5.1816 2.1384-1.9534 2.1179-2.2824 6.1275h13.818q0-3.8862-1.6861-6.0658-1.6861-2.2001-4.6676-2.2001z"/>
		<path d="m116.57 919.89q1.4188 0 3.0432.28787l-.39068 1.9534q-1.3982-.34955-2.8992-.34955-2.8581 0-4.6881 2.4263t-1.83 6.1275v12.337h-2.0356v-22.351h1.7272l.20562 4.0302h.14394q1.3776-2.4674 2.9404-3.4544 1.5627-1.0075 3.7834-1.0075z"/>
		<path d="m129.03 942.67-8.636-22.351h2.0973l5.7779 15.195q1.1515 2.9198 1.7272 5.0994h.12338q.84304-2.7964 1.7272-5.1405l5.7779-15.154h2.0973l-8.636 22.351h-2.0562z"/>
		<path d="m152.49 943.08q-4.8732 0-7.6079-3.002-2.7142-3.002-2.7142-8.4098 0-5.3461 2.6319-8.5538 2.6319-3.2282 7.0939-3.2282 3.9479 0 6.2303 2.7553t2.2824 7.4846v1.645h-16.1q.0411 4.6059 2.1384 7.0322 2.1179 2.4263 6.0452 2.4263 1.9123 0 3.3516-.2673 1.4599-.26731 3.6806-1.1515v1.8506q-1.8917.82248-3.4955 1.1103-1.6038.30843-3.5367.30843zm-.5963-21.384q-3.2282 0-5.1816 2.1384-1.9534 2.1179-2.2824 6.1275h13.818q0-3.8862-1.6861-6.0658-1.6861-2.2001-4.6676-2.2001z"/>
		<path d="m174.84 919.89q2.4263 0 4.1946.88417 1.7683.88416 3.1666 3.0226h.12337q-.12337-2.5908-.12337-5.0788v-8.0397h2.0151v31.994h-1.3365l-.51405-3.4133h-.16449q-2.5497 3.8245-7.3201 3.8245-4.6264 0-7.0733-2.8787t-2.4469-8.3893q0-5.7985 2.4263-8.8622t7.0528-3.0637zm0 1.8506q-3.66 0-5.5106 2.5702-1.83 2.5702-1.83 7.464 0 9.4996 7.3818 9.4996 3.7834 0 5.5517-2.2001t1.7683-7.2584v-.34955q0-5.1816-1.7478-7.4434-1.7272-2.2824-5.6134-2.2824z"/>
		<path d="m220.55 942.67-4.8938-14.949q-.47292-1.5216-1.2132-4.462h-.12337l-.4318 1.5216-.92529 2.9815-4.976 14.907h-2.0151l-6.3948-22.351h2.1796l3.5778 12.954q1.2543 4.8115 1.645 7.0733h.12337q1.2132-4.8115 1.7683-6.3948l4.6059-13.633h1.8506l4.3797 13.591q1.4805 4.8321 1.8094 6.3948h.12338q.16449-1.3365 1.645-7.1556l3.4133-12.831h2.0562l-6.0658 22.351h-2.1384z"/>
		<path d="m235.15 942.67h-2.0356v-22.351h2.0356v22.351zm-2.3235-28.561q0-1.974 1.2954-1.974.63742 0 .98697.51405.37012.51405.37012 1.4599 0 .92529-.37012 1.4599-.34955.53461-.98697.53461-1.2954 0-1.2954-1.9945z"/>
		<path d="m248.55 941.27q1.9328 0 3.3722-.32899v1.645q-1.4805.49348-3.4133.49348-2.9609 0-4.3797-1.5833-1.3982-1.5833-1.3982-4.976v-14.435h-3.3105v-1.1926l3.3105-.92529 1.0281-5.0582h1.0487v5.4078h6.5593v1.7683h-6.5593v14.147q0 2.5702.90473 3.804.90473 1.2337 2.8376 1.2337z"/>
		<path d="m272.3 942.67v-14.496q0-3.3722-1.4188-4.8938-1.4188-1.5422-4.4003-1.5422-4.0096 0-5.8807 2.0356-1.8506 2.0151-1.8506 6.5593v12.337h-2.0356v-31.994h2.0356v10.178l-.10281 2.8581h.14394q1.2543-2.0151 3.1665-2.9198 1.9123-.90473 4.7498-.90473 7.6079 0 7.6079 8.1631v14.62h-2.0151z"/>
	</g>
</svg>
