<svg xmlns:rdf="http://www.w3.org/1999/02/22-rdf-syntax-ns#" xmlns="http://www.w3.org/2000/svg" height="6.535mm" width="53.953mm" version="1.1" xmlns:cc="http://creativecommons.org/ns#" xmlns:dc="http://purl.org/dc/elements/1.1/" viewBox="0 0 191.17043 23.15558">
	<g transform="translate(-60.138 -611.8)">
		<text style="word-spacing:0px;letter-spacing:-3.7717px" font-weight="300" transform="scale(1.0545 .94833)" xml:space="preserve" line-height="125%" font-size="102.96px" y="-159.4989" x="-1353.899" font-family="&apos;Open Sans&apos;" fill="#333333"><tspan y="-159.4989" x="-1353.899">CA<tspan style="letter-spacing:-7.7791px" fill="#333333">DDY</tspan></tspan></text>
		<g fill="#333" transform="matrix(1.8403 0 0 1.8403 -3431.4 -859.23)">
			<path style="color:#000000;text-indent:0;block-progression:tb;text-decoration-line:none;text-transform:none" d="m1045.2 339.08c-10.192 0-20.836 8.2351-23.819 18.343l-4.9175 16.665c-2.9826 10.108 2.8012 18.343 12.994 18.343h16.656c10.192 0 20.836-8.2351 23.819-18.343l4.9175-16.665c2.9826-10.108-2.8012-18.343-12.994-18.343h-16.656zm-0.7253 2.4577h16.656c8.7589 0 13.766 7.0421 11.156 15.885l-4.9175 16.665c-2.6094 8.8432-11.772 15.885-20.531 15.885h-16.656c-8.7589 0-13.766-7.0421-11.156-15.885l4.9175-16.665c2.6094-8.8432 11.772-15.885 20.531-15.885z"/>
			<g transform="matrix(2.5618 0 0 2.5618 -1556.5 131.33)">
				<path d="m1009.3 97.761c0.03-0.60776 0.1611-1.1863 0.4473-1.7279 0.1122-0.2123 0.2449-0.41309 0.3673-0.61964 0.9468-1.4879 2.0556-2.881 3.3571-4.0757 0.3137-0.28796 0.6463-0.55472 0.9694-0.83207 1.911-1.5232 4.0535-2.7191 6.2507-3.7732 0.5911-0.27739 1.2018-0.5063 1.8174-0.72166l1.9416 0.24631c-0.6663 0.19418-1.3278 0.40441-1.966 0.68043-0.306 0.1356-0.615 0.2649-0.9181 0.4068-1.9199 0.89863-3.7584 1.9885-5.4193 3.3084-0.7859 0.6794-1.1013 0.91473-1.8059 1.6683-0.9022 0.96481-1.6674 2.0495-2.3311 3.1891-0.3996 0.76324-0.719 1.3691-0.6085 2.2509h-2.1019z"/>
				<path d="m1011.1 97.761c0.071-0.76014 0.3558-1.4816 0.6618-2.1736 0.4326-0.8583 1.0144-1.6394 1.6963-2.3166 0.5019-0.49839 0.8095-0.72268 1.3612-1.1677 1.3633-1.0602 2.8504-1.9509 4.3931-2.7222 0.6691-0.33806 1.3687-0.60656 2.0706-0.86674l1.9675 0.24466c-0.7369 0.23898-1.4696 0.49511-2.1686 0.83207-1.5639 0.73834-3.074 1.6075-4.4379 2.6756-0.5585 0.44866-0.8257 0.63759-1.3294 1.1422-0.6556 0.65698-1.2026 1.4211-1.6017 2.259-0.2814 0.65376-0.5691 1.3669-0.5068 2.0932h-2.1061z"/>
				<path d="m1007.9 97.761c0.029-0.5316 0.038-1.0602 0.1538-1.5832 0.032-0.14504 0.076-0.28717 0.114-0.43076 0.3884-1.158 1.0287-2.2087 1.6402-3.2588 0.7323-1.1921 1.6082-2.2842 2.5193-3.3425 0.3712-0.43529 0.7661-0.84862 1.1597-1.2633l2.014 0.15887c-0.4276 0.40419-0.8583 0.80532-1.2517 1.2439-0.9375 1.0301-1.8261 2.1112-2.5551 3.3014-0.584 1.0333-1.1769 2.0762-1.5426 3.2108-0.035 0.13749-0.076 0.27345-0.1047 0.41247-0.1039 0.51188-0.1033 1.0334-0.053 1.5511h-2.0935z"/>
			</g>
		</g>
		<text style="word-spacing:0px;letter-spacing:0px" xml:space="preserve" font-size="40px" y="-41.554661" x="-831.44531" font-family="Sans" line-height="125%" fill="#000000"><tspan x="-831.44531" y="-41.554661">I like these colors or</tspan><tspan x="-831.44531" y="8.4453392">shades together:</tspan></text>
		<rect rx="17.104" ry="17.833" height="82.413" width="82.413" y="42.663" x="-803.77" fill="#d7f4ee"/>
		<rect rx="17.104" ry="17.833" height="84.217" width="105.27" y="49.28" x="-692.49" fill="#0093c5"/>
		<g transform="translate(-294.86 -504.11)">
			<text style="word-spacing:0px;letter-spacing:-3.6821px" font-weight="300" transform="scale(1.0545 .94833)" xml:space="preserve" line-height="125%" font-size="100.52px" y="889.04816" x="-992.19739" font-family="&apos;Open Sans&apos;" fill="#333333"><tspan y="889.04816" x="-992.19739">CA<tspan style="letter-spacing:-7.5943px" fill="#333333">DDY</tspan></tspan></text>
			<g fill="#333" transform="matrix(8.8513 0 0 8.8513 -10110 -18.043)">
				<path d="m1009.3 97.761c0.03-0.60776 0.1611-1.1863 0.4473-1.7279 0.1122-0.2123 0.2449-0.41309 0.3673-0.61964 0.9468-1.4879 2.0556-2.881 3.3571-4.0757 0.3137-0.28796 0.6463-0.55472 0.9694-0.83207 1.911-1.5232 4.0535-2.7191 6.2507-3.7732 0.5911-0.27739 1.2018-0.5063 1.8174-0.72166l1.9416 0.24631c-0.6663 0.19418-1.3278 0.40441-1.966 0.68043-0.306 0.1356-0.615 0.2649-0.9181 0.4068-1.9199 0.89863-3.7584 1.9885-5.4193 3.3084-0.7859 0.6794-1.1013 0.91473-1.8059 1.6683-0.9022 0.96481-1.6674 2.0495-2.3311 3.1891-0.3996 0.76324-0.719 1.3691-0.6085 2.2509h-2.1019z"/>
				<path d="m1011.1 97.761c0.071-0.76014 0.3558-1.4816 0.6618-2.1736 0.4326-0.8583 1.0144-1.6394 1.6963-2.3166 0.5019-0.49839 0.8095-0.72268 1.3612-1.1677 1.3633-1.0602 2.8504-1.9509 4.3931-2.7222 0.6691-0.33806 1.3687-0.60656 2.0706-0.86674l1.9675 0.24466c-0.7369 0.23898-1.4696 0.49511-2.1686 0.83207-1.5639 0.73834-3.074 1.6075-4.4379 2.6756-0.5585 0.44866-0.8257 0.63759-1.3294 1.1422-0.6556 0.65698-1.2026 1.4211-1.6017 2.259-0.2814 0.65376-0.5691 1.3669-0.5068 2.0932h-2.1061z"/>
				<path d="m1007.9 97.761c0.029-0.5316 0.038-1.0602 0.1538-1.5832 0.032-0.14504 0.076-0.28717 0.114-0.43076 0.3884-1.158 1.0287-2.2087 1.6402-3.2588 0.7323-1.1921 1.6082-2.2842 2.5193-3.3425 0.3712-0.43529 0.7661-0.84862 1.1597-1.2633l2.014 0.15887c-0.4276 0.40419-0.8583 0.80532-1.2517 1.2439-0.9375 1.0301-1.8261 2.1112-2.5551 3.3014-0.584 1.0333-1.1769 2.0762-1.5426 3.2108-0.035 0.13749-0.076 0.27345-0.1047 0.41247-0.1039 0.51188-0.1033 1.0334-0.053 1.5511h-2.0935z"/>
			</g>
		</g>
		<rect rx="17.104" ry="17.833" height="145" width="513" stroke="#000" y="-30.924" x="-1576.2" fill="#f9f9f9"/>
		<g transform="translate(-294.86 -504.11)">
			<text style="word-spacing:0px;letter-spacing:-3.6821px" font-weight="300" xml:space="preserve" transform="scale(1.0545 .94833)" line-height="125%" font-size="100.52px" y="613.16309" x="-1065.96" font-family="&apos;Open Sans&apos;" fill="#333333"><tspan x="-1065.96" y="613.16309">CA<tspan style="letter-spacing:-7.5943px" fill="#333333">DDY</tspan></tspan></text>
			<g fill="#333" transform="matrix(6.0985 0 0 6.0985 -7385.5 -12.578)">
				<path d="m1009.3 97.761c0.03-0.60776 0.1611-1.1863 0.4473-1.7279 0.1122-0.2123 0.2449-0.41309 0.3673-0.61964 0.9468-1.4879 2.0556-2.881 3.3571-4.0757 0.3137-0.28796 0.6463-0.55472 0.9694-0.83207 1.911-1.5232 4.0535-2.7191 6.2507-3.7732 0.5911-0.27739 1.2018-0.5063 1.8174-0.72166l1.9416 0.24631c-0.6663 0.19418-1.3278 0.40441-1.966 0.68043-0.306 0.1356-0.615 0.2649-0.9181 0.4068-1.9199 0.89863-3.7584 1.9885-5.4193 3.3084-0.7859 0.6794-1.1013 0.91473-1.8059 1.6683-0.9022 0.96481-1.6674 2.0495-2.3311 3.1891-0.3996 0.76324-0.719 1.3691-0.6085 2.2509h-2.1019z"/>
				<path d="m1011.1 97.761c0.071-0.76014 0.3558-1.4816 0.6618-2.1736 0.4326-0.8583 1.0144-1.6394 1.6963-2.3166 0.5019-0.49839 0.8095-0.72268 1.3612-1.1677 1.3633-1.0602 2.8504-1.9509 4.3931-2.7222 0.6691-0.33806 1.3687-0.60656 2.0706-0.86674l1.9675 0.24466c-0.7369 0.23898-1.4696 0.49511-2.1686 0.83207-1.5639 0.73834-3.074 1.6075-4.4379 2.6756-0.5585 0.44866-0.8257 0.63759-1.3294 1.1422-0.6556 0.65698-1.2026 1.4211-1.6017 2.259-0.2814 0.65376-0.5691 1.3669-0.5068 2.0932h-2.1061z"/>
				<path d="m1007.9 97.761c0.029-0.5316 0.038-1.0602 0.1538-1.5832 0.032-0.14504 0.076-0.28717 0.114-0.43076 0.3884-1.158 1.0287-2.2087 1.6402-3.2588 0.7323-1.1921 1.6082-2.2842 2.5193-3.3425 0.3712-0.43529 0.7661-0.84862 1.1597-1.2633l2.014 0.15887c-0.4276 0.40419-0.8583 0.80532-1.2517 1.2439-0.9375 1.0301-1.8261 2.1112-2.5551 3.3014-0.584 1.0333-1.1769 2.0762-1.5426 3.2108-0.035 0.13749-0.076 0.27345-0.1047 0.41247-0.1039 0.51188-0.1033 1.0334-0.053 1.5511h-2.0935z"/>
			</g>
		</g>
		<g transform="translate(-1714 -479.8)">
			<rect rx="17.104" ry="17.833" height="137.38" width="464.67" y="910.94" x="171.73"/>
			<g transform="translate(-1591.8 905.47)">
				<text style="word-spacing:0px;letter-spacing:-3.1692px" font-weight="300" xml:space="preserve" transform="scale(1.0545 .94833)" line-height="125%" font-size="86.514px" y="114.31411" x="1825.8928" font-family="&apos;Open Sans&apos;" fill="#ffffff"><tspan x="1825.8928" y="114.31411">CA<tspan style="letter-spacing:-6.5365px" fill="#ffffff">DDY</tspan></tspan></text>
				<g fill="#fff" transform="matrix(7.6184 0 0 7.6184 -5875.5 -632.79)">
					<path d="m1009.3 97.761c0.03-0.60776 0.1611-1.1863 0.4473-1.7279 0.1122-0.2123 0.2449-0.41309 0.3673-0.61964 0.9468-1.4879 2.0556-2.881 3.3571-4.0757 0.3137-0.28796 0.6463-0.55472 0.9694-0.83207 1.911-1.5232 4.0535-2.7191 6.2507-3.7732 0.5911-0.27739 1.2018-0.5063 1.8174-0.72166l1.9416 0.24631c-0.6663 0.19418-1.3278 0.40441-1.966 0.68043-0.306 0.1356-0.615 0.2649-0.9181 0.4068-1.9199 0.89863-3.7584 1.9885-5.4193 3.3084-0.7859 0.6794-1.1013 0.91473-1.8059 1.6683-0.9022 0.96481-1.6674 2.0495-2.3311 3.1891-0.3996 0.76324-0.719 1.3691-0.6085 2.2509h-2.1019z"/>
					<path d="m1011.1 97.761c0.071-0.76014 0.3558-1.4816 0.6618-2.1736 0.4326-0.8583 1.0144-1.6394 1.6963-2.3166 0.5019-0.49839 0.8095-0.72268 1.3612-1.1677 1.3633-1.0602 2.8504-1.9509 4.3931-2.7222 0.6691-0.33806 1.3687-0.60656 2.0706-0.86674l1.9675 0.24466c-0.7369 0.23898-1.4696 0.49511-2.1686 0.83207-1.5639 0.73834-3.074 1.6075-4.4379 2.6756-0.5585 0.44866-0.8257 0.63759-1.3294 1.1422-0.6556 0.65698-1.2026 1.4211-1.6017 2.259-0.2814 0.65376-0.5691 1.3669-0.5068 2.0932h-2.1061z"/>
					<path d="m1007.9 97.761c0.029-0.5316 0.038-1.0602 0.1538-1.5832 0.032-0.14504 0.076-0.28717 0.114-0.43076 0.3884-1.158 1.0287-2.2087 1.6402-3.2588 0.7323-1.1921 1.6082-2.2842 2.5193-3.3425 0.3712-0.43529 0.7661-0.84862 1.1597-1.2633l2.014 0.15887c-0.4276 0.40419-0.8583 0.80532-1.2517 1.2439-0.9375 1.0301-1.8261 2.1112-2.5551 3.3014-0.584 1.0333-1.1769 2.0762-1.5426 3.2108-0.035 0.13749-0.076 0.27345-0.1047 0.41247-0.1039 0.51188-0.1033 1.0334-0.053 1.5511h-2.0935z"/>
				</g>
			</g>
		</g>
		<text style="word-spacing:0px;letter-spacing:-3.6821px" font-weight="300" transform="scale(1.0545 .94833)" xml:space="preserve" line-height="125%" font-size="100.52px" y="163.78101" x="196.36261" font-family="&apos;Open Sans&apos;" fill="#333333"><tspan y="163.78101" x="196.36261">CA<tspan style="letter-spacing:-7.5943px" fill="#333333">DDY</tspan></tspan></text>
		<g transform="matrix(8.8513 0 0 8.8513 -8856.4 -707.83)" fill="#333">
			<path d="m1009.3 97.761c0.03-0.60776 0.1611-1.1863 0.4473-1.7279 0.1122-0.2123 0.2449-0.41309 0.3673-0.61964 0.9468-1.4879 2.0556-2.881 3.3571-4.0757 0.3137-0.28796 0.6463-0.55472 0.9694-0.83207 1.911-1.5232 4.0535-2.7191 6.2507-3.7732 0.5911-0.27739 1.2018-0.5063 1.8174-0.72166l1.9416 0.24631c-0.6663 0.19418-1.3278 0.40441-1.966 0.68043-0.306 0.1356-0.615 0.2649-0.9181 0.4068-1.9199 0.89863-3.7584 1.9885-5.4193 3.3084-0.7859 0.6794-1.1013 0.91473-1.8059 1.6683-0.9022 0.96481-1.6674 2.0495-2.3311 3.1891-0.3996 0.76324-0.719 1.3691-0.6085 2.2509h-2.1019z"/>
			<path d="m1011.1 97.761c0.071-0.76014 0.3558-1.4816 0.6618-2.1736 0.4326-0.8583 1.0144-1.6394 1.6963-2.3166 0.5019-0.49839 0.8095-0.72268 1.3612-1.1677 1.3633-1.0602 2.8504-1.9509 4.3931-2.7222 0.6691-0.33806 1.3687-0.60656 2.0706-0.86674l1.9675 0.24466c-0.7369 0.23898-1.4696 0.49511-2.1686 0.83207-1.5639 0.73834-3.074 1.6075-4.4379 2.6756-0.5585 0.44866-0.8257 0.63759-1.3294 1.1422-0.6556 0.65698-1.2026 1.4211-1.6017 2.259-0.2814 0.65376-0.5691 1.3669-0.5068 2.0932h-2.1061z"/>
			<path d="m1007.9 97.761c0.029-0.5316 0.038-1.0602 0.1538-1.5832 0.032-0.14504 0.076-0.28717 0.114-0.43076 0.3884-1.158 1.0287-2.2087 1.6402-3.2588 0.7323-1.1921 1.6082-2.2842 2.5193-3.3425 0.3712-0.43529 0.7661-0.84862 1.1597-1.2633l2.014 0.15887c-0.4276 0.40419-0.8583 0.80532-1.2517 1.2439-0.9375 1.0301-1.8261 2.1112-2.5551 3.3014-0.584 1.0333-1.1769 2.0762-1.5426 3.2108-0.035 0.13749-0.076 0.27345-0.1047 0.41247-0.1039 0.51188-0.1033 1.0334-0.053 1.5511h-2.0935z"/>
		</g>
		<text style="word-spacing:0px;letter-spacing:-.96872px" font-weight="300" transform="scale(1.0545 .94833)" xml:space="preserve" line-height="125%" font-size="26.445px" y="666.79272" x="160.62311" font-family="&apos;Open Sans&apos;" fill="#ffffff"><tspan y="666.79272" x="160.62311">CA<tspan style="letter-spacing:-1.998px" fill="#ffffff">DDY</tspan></tspan></text>
		<g transform="matrix(.43403 0 0 .43403 -302.44 464.63)" fill="#fff">
			<path style="color:#000000;text-indent:0;block-progression:tb;text-decoration-line:none;text-transform:none" d="m1045.2 339.08c-10.192 0-20.836 8.2351-23.819 18.343l-4.9175 16.665c-2.9826 10.108 2.8012 18.343 12.994 18.343h16.656c10.192 0 20.836-8.2351 23.819-18.343l4.9175-16.665c2.9826-10.108-2.8012-18.343-12.994-18.343h-16.656zm-0.7253 2.4577h16.656c8.7589 0 13.766 7.0421 11.156 15.885l-4.9175 16.665c-2.6094 8.8432-11.772 15.885-20.531 15.885h-16.656c-8.7589 0-13.766-7.0421-11.156-15.885l4.9175-16.665c2.6094-8.8432 11.772-15.885 20.531-15.885z"/>
			<g transform="matrix(2.5618 0 0 2.5618 -1556.5 131.33)">
				<path d="m1009.3 97.761c0.03-0.60776 0.1611-1.1863 0.4473-1.7279 0.1122-0.2123 0.2449-0.41309 0.3673-0.61964 0.9468-1.4879 2.0556-2.881 3.3571-4.0757 0.3137-0.28796 0.6463-0.55472 0.9694-0.83207 1.911-1.5232 4.0535-2.7191 6.2507-3.7732 0.5911-0.27739 1.2018-0.5063 1.8174-0.72166l1.9416 0.24631c-0.6663 0.19418-1.3278 0.40441-1.966 0.68043-0.306 0.1356-0.615 0.2649-0.9181 0.4068-1.9199 0.89863-3.7584 1.9885-5.4193 3.3084-0.7859 0.6794-1.1013 0.91473-1.8059 1.6683-0.9022 0.96481-1.6674 2.0495-2.3311 3.1891-0.3996 0.76324-0.719 1.3691-0.6085 2.2509h-2.1019z"/>
				<path d="m1011.1 97.761c0.071-0.76014 0.3558-1.4816 0.6618-2.1736 0.4326-0.8583 1.0144-1.6394 1.6963-2.3166 0.5019-0.49839 0.8095-0.72268 1.3612-1.1677 1.3633-1.0602 2.8504-1.9509 4.3931-2.7222 0.6691-0.33806 1.3687-0.60656 2.0706-0.86674l1.9675 0.24466c-0.7369 0.23898-1.4696 0.49511-2.1686 0.83207-1.5639 0.73834-3.074 1.6075-4.4379 2.6756-0.5585 0.44866-0.8257 0.63759-1.3294 1.1422-0.6556 0.65698-1.2026 1.4211-1.6017 2.259-0.2814 0.65376-0.5691 1.3669-0.5068 2.0932h-2.1061z"/>
				<path d="m1007.9 97.761c0.029-0.5316 0.038-1.0602 0.1538-1.5832 0.032-0.14504 0.076-0.28717 0.114-0.43076 0.3884-1.158 1.0287-2.2087 1.6402-3.2588 0.7323-1.1921 1.6082-2.2842 2.5193-3.3425 0.3712-0.43529 0.7661-0.84862 1.1597-1.2633l2.014 0.15887c-0.4276 0.40419-0.8583 0.80532-1.2517 1.2439-0.9375 1.0301-1.8261 2.1112-2.5551 3.3014-0.584 1.0333-1.1769 2.0762-1.5426 3.2108-0.035 0.13749-0.076 0.27345-0.1047 0.41247-0.1039 0.51188-0.1033 1.0334-0.053 1.5511h-2.0935z"/>
			</g>
		</g>
		<text style="word-spacing:0px;letter-spacing:0px" font-weight="300" xml:space="preserve" font-size="13.899px" line-height="125%" y="628.5929" x="58.733536" font-family="&apos;Open Sans&apos;" fill="#ffffff"><tspan x="58.733536" y="628.5929">Powered by</tspan></text>
		<g fill="#333" transform="matrix(1.315 0 0 1.315 -1038.4 25.921)">
			<path style="color:#000000;text-indent:0;block-progression:tb;text-decoration-line:none;text-transform:none" d="m1045.2 339.08c-10.192 0-20.836 8.2351-23.819 18.343l-4.9175 16.665c-2.9826 10.108 2.8012 18.343 12.994 18.343h16.656c10.192 0 20.836-8.2351 23.819-18.343l4.9175-16.665c2.9826-10.108-2.8012-18.343-12.994-18.343h-16.656zm-0.7253 2.4577h16.656c8.7589 0 13.766 7.0421 11.156 15.885l-4.9175 16.665c-2.6094 8.8432-11.772 15.885-20.531 15.885h-16.656c-8.7589 0-13.766-7.0421-11.156-15.885l4.9175-16.665c2.6094-8.8432 11.772-15.885 20.531-15.885z"/>
			<g transform="matrix(2.5618 0 0 2.5618 -1556.5 131.33)">
				<path d="m1009.3 97.761c0.03-0.60776 0.1611-1.1863 0.4473-1.7279 0.1122-0.2123 0.2449-0.41309 0.3673-0.61964 0.9468-1.4879 2.0556-2.881 3.3571-4.0757 0.3137-0.28796 0.6463-0.55472 0.9694-0.83207 1.911-1.5232 4.0535-2.7191 6.2507-3.7732 0.5911-0.27739 1.2018-0.5063 1.8174-0.72166l1.9416 0.24631c-0.6663 0.19418-1.3278 0.40441-1.966 0.68043-0.306 0.1356-0.615 0.2649-0.9181 0.4068-1.9199 0.89863-3.7584 1.9885-5.4193 3.3084-0.7859 0.6794-1.1013 0.91473-1.8059 1.6683-0.9022 0.96481-1.6674 2.0495-2.3311 3.1891-0.3996 0.76324-0.719 1.3691-0.6085 2.2509h-2.1019z"/>
				<path d="m1011.1 97.761c0.071-0.76014 0.3558-1.4816 0.6618-2.1736 0.4326-0.8583 1.0144-1.6394 1.6963-2.3166 0.5019-0.49839 0.8095-0.72268 1.3612-1.1677 1.3633-1.0602 2.8504-1.9509 4.3931-2.7222 0.6691-0.33806 1.3687-0.60656 2.0706-0.86674l1.9675 0.24466c-0.7369 0.23898-1.4696 0.49511-2.1686 0.83207-1.5639 0.73834-3.074 1.6075-4.4379 2.6756-0.5585 0.44866-0.8257 0.63759-1.3294 1.1422-0.6556 0.65698-1.2026 1.4211-1.6017 2.259-0.2814 0.65376-0.5691 1.3669-0.5068 2.0932h-2.1061z"/>
				<path d="m1007.9 97.761c0.029-0.5316 0.038-1.0602 0.1538-1.5832 0.032-0.14504 0.076-0.28717 0.114-0.43076 0.3884-1.158 1.0287-2.2087 1.6402-3.2588 0.7323-1.1921 1.6082-2.2842 2.5193-3.3425 0.3712-0.43529 0.7661-0.84862 1.1597-1.2633l2.014 0.15887c-0.4276 0.40419-0.8583 0.80532-1.2517 1.2439-0.9375 1.0301-1.8261 2.1112-2.5551 3.3014-0.584 1.0333-1.1769 2.0762-1.5426 3.2108-0.035 0.13749-0.076 0.27345-0.1047 0.41247-0.1039 0.51188-0.1033 1.0334-0.053 1.5511h-2.0935z"/>
			</g>
		</g>
		<text style="word-spacing:0px;letter-spacing:0px" font-weight="300" font-size="42.111px" line-height="125%" y="522.04456" x="55.882053" font-family="&apos;Open Sans&apos;" xml:space="preserve" fill="#333333"><tspan y="522.04456" x="55.882053">Powered by</tspan></text>
		<g transform="translate(1302.1 -189.11)">
			<text style="word-spacing:0px;letter-spacing:-3.6821px" font-weight="300" transform="scale(1.0545 .94833)" xml:space="preserve" line-height="125%" font-size="100.52px" y="613.16309" x="-1065.96" font-family="&apos;Open Sans&apos;" fill="#333333"><tspan y="613.16309" x="-1065.96">CA<tspan style="letter-spacing:-7.5943px" fill="#333333">DDY</tspan></tspan></text>
			<g fill="#333" transform="matrix(6.0985 0 0 6.0985 -7385.5 -12.578)">
				<path d="m1009.3 97.761c0.03-0.60776 0.1611-1.1863 0.4473-1.7279 0.1122-0.2123 0.2449-0.41309 0.3673-0.61964 0.9468-1.4879 2.0556-2.881 3.3571-4.0757 0.3137-0.28796 0.6463-0.55472 0.9694-0.83207 1.911-1.5232 4.0535-2.7191 6.2507-3.7732 0.5911-0.27739 1.2018-0.5063 1.8174-0.72166l1.9416 0.24631c-0.6663 0.19418-1.3278 0.40441-1.966 0.68043-0.306 0.1356-0.615 0.2649-0.9181 0.4068-1.9199 0.89863-3.7584 1.9885-5.4193 3.3084-0.7859 0.6794-1.1013 0.91473-1.8059 1.6683-0.9022 0.96481-1.6674 2.0495-2.3311 3.1891-0.3996 0.76324-0.719 1.3691-0.6085 2.2509h-2.1019z"/>
				<path d="m1011.1 97.761c0.071-0.76014 0.3558-1.4816 0.6618-2.1736 0.4326-0.8583 1.0144-1.6394 1.6963-2.3166 0.5019-0.49839 0.8095-0.72268 1.3612-1.1677 1.3633-1.0602 2.8504-1.9509 4.3931-2.7222 0.6691-0.33806 1.3687-0.60656 2.0706-0.86674l1.9675 0.24466c-0.7369 0.23898-1.4696 0.49511-2.1686 0.83207-1.5639 0.73834-3.074 1.6075-4.4379 2.6756-0.5585 0.44866-0.8257 0.63759-1.3294 1.1422-0.6556 0.65698-1.2026 1.4211-1.6017 2.259-0.2814 0.65376-0.5691 1.3669-0.5068 2.0932h-2.1061z"/>
				<path d="m1007.9 97.761c0.029-0.5316 0.038-1.0602 0.1538-1.5832 0.032-0.14504 0.076-0.28717 0.114-0.43076 0.3884-1.158 1.0287-2.2087 1.6402-3.2588 0.7323-1.1921 1.6082-2.2842 2.5193-3.3425 0.3712-0.43529 0.7661-0.84862 1.1597-1.2633l2.014 0.15887c-0.4276 0.40419-0.8583 0.80532-1.2517 1.2439-0.9375 1.0301-1.8261 2.1112-2.5551 3.3014-0.584 1.0333-1.1769 2.0762-1.5426 3.2108-0.035 0.13749-0.076 0.27345-0.1047 0.41247-0.1039 0.51188-0.1033 1.0334-0.053 1.5511h-2.0935z"/>
			</g>
		</g>
		<g font-family="&apos;Open Sans&apos;" font-weight="300" fill="#333333">
			<text style="word-spacing:0px;letter-spacing:0px" xml:space="preserve" font-size="35.111px" line-height="125%" y="296.7262" x="181.83398"><tspan x="181.83398" y="296.7262">Powered by</tspan></text>
			<text style="word-spacing:0px;letter-spacing:0px" font-size="35.111px" line-height="125%" y="62.726196" x="277.16199" xml:space="preserve"><tspan y="62.726196" x="277.16199">Powered by</tspan></text>
			<text style="word-spacing:0px;letter-spacing:-3.6821px" xml:space="preserve" transform="scale(1.0545 .94833)" line-height="125%" font-size="100.52px" y="-68.206276" x="196.36261"><tspan x="196.36261" y="-68.206276">CA<tspan style="letter-spacing:-7.5943px" fill="#333333">DDY</tspan></tspan></text>
		</g>
		<g fill="#333" transform="matrix(10.305 0 0 10.305 -10321 -1069.9)">
			<path d="m1009.3 97.761c0.03-0.60776 0.1611-1.1863 0.4473-1.7279 0.1122-0.2123 0.2449-0.41309 0.3673-0.61964 0.9468-1.4879 2.0556-2.881 3.3571-4.0757 0.3137-0.28796 0.6463-0.55472 0.9694-0.83207 1.911-1.5232 4.0535-2.7191 6.2507-3.7732 0.5911-0.27739 1.2018-0.5063 1.8174-0.72166l1.9416 0.24631c-0.6663 0.19418-1.3278 0.40441-1.966 0.68043-0.306 0.1356-0.615 0.2649-0.9181 0.4068-1.9199 0.89863-3.7584 1.9885-5.4193 3.3084-0.7859 0.6794-1.1013 0.91473-1.8059 1.6683-0.9022 0.96481-1.6674 2.0495-2.3311 3.1891-0.3996 0.76324-0.719 1.3691-0.6085 2.2509h-2.1019z"/>
			<path d="m1011.1 97.761c0.071-0.76014 0.3558-1.4816 0.6618-2.1736 0.4326-0.8583 1.0144-1.6394 1.6963-2.3166 0.5019-0.49839 0.8095-0.72268 1.3612-1.1677 1.3633-1.0602 2.8504-1.9509 4.3931-2.7222 0.6691-0.33806 1.3687-0.60656 2.0706-0.86674l1.9675 0.24466c-0.7369 0.23898-1.4696 0.49511-2.1686 0.83207-1.5639 0.73834-3.074 1.6075-4.4379 2.6756-0.5585 0.44866-0.8257 0.63759-1.3294 1.1422-0.6556 0.65698-1.2026 1.4211-1.6017 2.259-0.2814 0.65376-0.5691 1.3669-0.5068 2.0932h-2.1061z"/>
			<path d="m1007.9 97.761c0.029-0.5316 0.038-1.0602 0.1538-1.5832 0.032-0.14504 0.076-0.28717 0.114-0.43076 0.3884-1.158 1.0287-2.2087 1.6402-3.2588 0.7323-1.1921 1.6082-2.2842 2.5193-3.3425 0.3712-0.43529 0.7661-0.84862 1.1597-1.2633l2.014 0.15887c-0.4276 0.40419-0.8583 0.80532-1.2517 1.2439-0.9375 1.0301-1.8261 2.1112-2.5551 3.3014-0.584 1.0333-1.1769 2.0762-1.5426 3.2108-0.035 0.13749-0.076 0.27345-0.1047 0.41247-0.1039 0.51188-0.1033 1.0334-0.053 1.5511h-2.0935z"/>
		</g>
		<text style="word-spacing:0px;letter-spacing:0px" font-weight="300" xml:space="preserve" font-size="35.111px" line-height="125%" y="-157.2738" x="277.16199" font-family="&apos;Open Sans&apos;" fill="#333333"><tspan x="277.16199" y="-157.2738">Powered by</tspan></text>
		<text style="word-spacing:0px;letter-spacing:-2.935px" font-weight="300" xml:space="preserve" transform="scale(1.0545 .94833)" line-height="125%" font-size="80.12px" y="1006.0015" x="370.88922" font-family="&apos;Open Sans&apos;" fill="#333333"><tspan x="370.88922" y="1006.0015">CA<tspan style="letter-spacing:-6.0534px" fill="#333333">DDY</tspan></tspan></text>
		<g fill="#333" transform="matrix(1.315 0 0 1.315 -1038.4 445.92)">
			<path style="color:#000000;text-indent:0;block-progression:tb;text-decoration-line:none;text-transform:none" d="m1045.2 339.08c-10.192 0-20.836 8.2351-23.819 18.343l-4.9175 16.665c-2.9826 10.108 2.8012 18.343 12.994 18.343h16.656c10.192 0 20.836-8.2351 23.819-18.343l4.9175-16.665c2.9826-10.108-2.8012-18.343-12.994-18.343h-16.656zm-0.7253 2.4577h16.656c8.7589 0 13.766 7.0421 11.156 15.885l-4.9175 16.665c-2.6094 8.8432-11.772 15.885-20.531 15.885h-16.656c-8.7589 0-13.766-7.0421-11.156-15.885l4.9175-16.665c2.6094-8.8432 11.772-15.885 20.531-15.885z"/>
			<g transform="matrix(2.5618 0 0 2.5618 -1556.5 131.33)">
				<path d="m1009.3 97.761c0.03-0.60776 0.1611-1.1863 0.4473-1.7279 0.1122-0.2123 0.2449-0.41309 0.3673-0.61964 0.9468-1.4879 2.0556-2.881 3.3571-4.0757 0.3137-0.28796 0.6463-0.55472 0.9694-0.83207 1.911-1.5232 4.0535-2.7191 6.2507-3.7732 0.5911-0.27739 1.2018-0.5063 1.8174-0.72166l1.9416 0.24631c-0.6663 0.19418-1.3278 0.40441-1.966 0.68043-0.306 0.1356-0.615 0.2649-0.9181 0.4068-1.9199 0.89863-3.7584 1.9885-5.4193 3.3084-0.7859 0.6794-1.1013 0.91473-1.8059 1.6683-0.9022 0.96481-1.6674 2.0495-2.3311 3.1891-0.3996 0.76324-0.719 1.3691-0.6085 2.2509h-2.1019z"/>
				<path d="m1011.1 97.761c0.071-0.76014 0.3558-1.4816 0.6618-2.1736 0.4326-0.8583 1.0144-1.6394 1.6963-2.3166 0.5019-0.49839 0.8095-0.72268 1.3612-1.1677 1.3633-1.0602 2.8504-1.9509 4.3931-2.7222 0.6691-0.33806 1.3687-0.60656 2.0706-0.86674l1.9675 0.24466c-0.7369 0.23898-1.4696 0.49511-2.1686 0.83207-1.5639 0.73834-3.074 1.6075-4.4379 2.6756-0.5585 0.44866-0.8257 0.63759-1.3294 1.1422-0.6556 0.65698-1.2026 1.4211-1.6017 2.259-0.2814 0.65376-0.5691 1.3669-0.5068 2.0932h-2.1061z"/>
				<path d="m1007.9 97.761c0.029-0.5316 0.038-1.0602 0.1538-1.5832 0.032-0.14504 0.076-0.28717 0.114-0.43076 0.3884-1.158 1.0287-2.2087 1.6402-3.2588 0.7323-1.1921 1.6082-2.2842 2.5193-3.3425 0.3712-0.43529 0.7661-0.84862 1.1597-1.2633l2.014 0.15887c-0.4276 0.40419-0.8583 0.80532-1.2517 1.2439-0.9375 1.0301-1.8261 2.1112-2.5551 3.3014-0.584 1.0333-1.1769 2.0762-1.5426 3.2108-0.035 0.13749-0.076 0.27345-0.1047 0.41247-0.1039 0.51188-0.1033 1.0334-0.053 1.5511h-2.0935z"/>
			</g>
		</g>
		<text style="word-spacing:0px;letter-spacing:0px" font-weight="300" font-size="42.111px" line-height="125%" y="942.67236" x="57.882053" font-family="&apos;Open Sans&apos;" xml:space="preserve" fill="#333333"><tspan y="942.67236" x="57.882053">Served with</tspan></text>
		<g transform="matrix(1.315 0 0 1.315 -1038.4 305.92)" fill="#333">
			<path style="color:#000000;text-indent:0;block-progression:tb;text-decoration-line:none;text-transform:none" d="m1045.2 339.08c-10.192 0-20.836 8.2351-23.819 18.343l-4.9175 16.665c-2.9826 10.108 2.8012 18.343 12.994 18.343h16.656c10.192 0 20.836-8.2351 23.819-18.343l4.9175-16.665c2.9826-10.108-2.8012-18.343-12.994-18.343h-16.656zm-0.7253 2.4577h16.656c8.7589 0 13.766 7.0421 11.156 15.885l-4.9175 16.665c-2.6094 8.8432-11.772 15.885-20.531 15.885h-16.656c-8.7589 0-13.766-7.0421-11.156-15.885l4.9175-16.665c2.6094-8.8432 11.772-15.885 20.531-15.885z"/>
			<g transform="matrix(2.5618 0 0 2.5618 -1556.5 131.33)">
				<path d="m1009.3 97.761c0.03-0.60776 0.1611-1.1863 0.4473-1.7279 0.1122-0.2123 0.2449-0.41309 0.3673-0.61964 0.9468-1.4879 2.0556-2.881 3.3571-4.0757 0.3137-0.28796 0.6463-0.55472 0.9694-0.83207 1.911-1.5232 4.0535-2.7191 6.2507-3.7732 0.5911-0.27739 1.2018-0.5063 1.8174-0.72166l1.9416 0.24631c-0.6663 0.19418-1.3278 0.40441-1.966 0.68043-0.306 0.1356-0.615 0.2649-0.9181 0.4068-1.9199 0.89863-3.7584 1.9885-5.4193 3.3084-0.7859 0.6794-1.1013 0.91473-1.8059 1.6683-0.9022 0.96481-1.6674 2.0495-2.3311 3.1891-0.3996 0.76324-0.719 1.3691-0.6085 2.2509h-2.1019z"/>
				<path d="m1011.1 97.761c0.071-0.76014 0.3558-1.4816 0.6618-2.1736 0.4326-0.8583 1.0144-1.6394 1.6963-2.3166 0.5019-0.49839 0.8095-0.72268 1.3612-1.1677 1.3633-1.0602 2.8504-1.9509 4.3931-2.7222 0.6691-0.33806 1.3687-0.60656 2.0706-0.86674l1.9675 0.24466c-0.7369 0.23898-1.4696 0.49511-2.1686 0.83207-1.5639 0.73834-3.074 1.6075-4.4379 2.6756-0.5585 0.44866-0.8257 0.63759-1.3294 1.1422-0.6556 0.65698-1.2026 1.4211-1.6017 2.259-0.2814 0.65376-0.5691 1.3669-0.5068 2.0932h-2.1061z"/>
				<path d="m1007.9 97.761c0.029-0.5316 0.038-1.0602 0.1538-1.5832 0.032-0.14504 0.076-0.28717 0.114-0.43076 0.3884-1.158 1.0287-2.2087 1.6402-3.2588 0.7323-1.1921 1.6082-2.2842 2.5193-3.3425 0.3712-0.43529 0.7661-0.84862 1.1597-1.2633l2.014 0.15887c-0.4276 0.40419-0.8583 0.80532-1.2517 1.2439-0.9375 1.0301-1.8261 2.1112-2.5551 3.3014-0.584 1.0333-1.1769 2.0762-1.5426 3.2108-0.035 0.13749-0.076 0.27345-0.1047 0.41247-0.1039 0.51188-0.1033 1.0334-0.053 1.5511h-2.0935z"/>
			</g>
		</g>
		<text style="word-spacing:0px;letter-spacing:0px" font-weight="300" xml:space="preserve" font-size="42.111px" line-height="125%" y="802.04456" x="57.882053" font-family="&apos;Open Sans&apos;" fill="#333333"><tspan x="57.882053" y="802.04456">Served with</tspan></text>
		<g transform="matrix(1.315 0 0 1.315 -1270.4 586.92)" fill="#333">
			<path style="color:#000000;text-indent:0;block-progression:tb;text-decoration-line:none;text-transform:none" d="m1045.2 339.08c-10.192 0-20.836 8.2351-23.819 18.343l-4.9175 16.665c-2.9826 10.108 2.8012 18.343 12.994 18.343h16.656c10.192 0 20.836-8.2351 23.819-18.343l4.9175-16.665c2.9826-10.108-2.8012-18.343-12.994-18.343h-16.656zm-0.7253 2.4577h16.656c8.7589 0 13.766 7.0421 11.156 15.885l-4.9175 16.665c-2.6094 8.8432-11.772 15.885-20.531 15.885h-16.656c-8.7589 0-13.766-7.0421-11.156-15.885l4.9175-16.665c2.6094-8.8432 11.772-15.885 20.531-15.885z"/>
			<g transform="matrix(2.5618 0 0 2.5618 -1556.5 131.33)">
				<path d="m1009.3 97.761c0.03-0.60776 0.1611-1.1863 0.4473-1.7279 0.1122-0.2123 0.2449-0.41309 0.3673-0.61964 0.9468-1.4879 2.0556-2.881 3.3571-4.0757 0.3137-0.28796 0.6463-0.55472 0.9694-0.83207 1.911-1.5232 4.0535-2.7191 6.2507-3.7732 0.5911-0.27739 1.2018-0.5063 1.8174-0.72166l1.9416 0.24631c-0.6663 0.19418-1.3278 0.40441-1.966 0.68043-0.306 0.1356-0.615 0.2649-0.9181 0.4068-1.9199 0.89863-3.7584 1.9885-5.4193 3.3084-0.7859 0.6794-1.1013 0.91473-1.8059 1.6683-0.9022 0.96481-1.6674 2.0495-2.3311 3.1891-0.3996 0.76324-0.719 1.3691-0.6085 2.2509h-2.1019z"/>
				<path d="m1011.1 97.761c0.071-0.76014 0.3558-1.4816 0.6618-2.1736 0.4326-0.8583 1.0144-1.6394 1.6963-2.3166 0.5019-0.49839 0.8095-0.72268 1.3612-1.1677 1.3633-1.0602 2.8504-1.9509 4.3931-2.7222 0.6691-0.33806 1.3687-0.60656 2.0706-0.86674l1.9675 0.24466c-0.7369 0.23898-1.4696 0.49511-2.1686 0.83207-1.5639 0.73834-3.074 1.6075-4.4379 2.6756-0.5585 0.44866-0.8257 0.63759-1.3294 1.1422-0.6556 0.65698-1.2026 1.4211-1.6017 2.259-0.2814 0.65376-0.5691 1.3669-0.5068 2.0932h-2.1061z"/>
				<path d="m1007.9 97.761c0.029-0.5316 0.038-1.0602 0.1538-1.5832 0.032-0.14504 0.076-0.28717 0.114-0.43076 0.3884-1.158 1.0287-2.2087 1.6402-3.2588 0.7323-1.1921 1.6082-2.2842 2.5193-3.3425 0.3712-0.43529 0.7661-0.84862 1.1597-1.2633l2.014 0.15887c-0.4276 0.40419-0.8583 0.80532-1.2517 1.2439-0.9375 1.0301-1.8261 2.1112-2.5551 3.3014-0.584 1.0333-1.1769 2.0762-1.5426 3.2108-0.035 0.13749-0.076 0.27345-0.1047 0.41247-0.1039 0.51188-0.1033 1.0334-0.053 1.5511h-2.0935z"/>
			</g>
		</g>
		<text style="word-spacing:0px;letter-spacing:-3.7717px" font-weight="300" xml:space="preserve" transform="scale(1.0545 .94833)" line-height="125%" font-size="102.96px" y="-291.62253" x="187.0686" font-family="&apos;Open Sans&apos;" fill="#333333"><tspan x="187.0686" y="-291.62253">CA<tspan style="letter-spacing:-7.7791px" fill="#333333">DDY</tspan></tspan></text>
		<g fill="#333" transform="matrix(1.628 0 0 1.628 -1570.8 -904.61)">
			<path style="color:#000000;text-indent:0;block-progression:tb;text-decoration-line:none;text-transform:none" d="m1045.2 339.08c-10.192 0-20.836 8.2351-23.819 18.343l-4.9175 16.665c-2.9826 10.108 2.8012 18.343 12.994 18.343h16.656c10.192 0 20.836-8.2351 23.819-18.343l4.9175-16.665c2.9826-10.108-2.8012-18.343-12.994-18.343h-16.656zm-0.7253 2.4577h16.656c8.7589 0 13.766 7.0421 11.156 15.885l-4.9175 16.665c-2.6094 8.8432-11.772 15.885-20.531 15.885h-16.656c-8.7589 0-13.766-7.0421-11.156-15.885l4.9175-16.665c2.6094-8.8432 11.772-15.885 20.531-15.885z"/>
			<g transform="matrix(2.5618 0 0 2.5618 -1556.5 131.33)">
				<path d="m1009.3 97.761c0.03-0.60776 0.1611-1.1863 0.4473-1.7279 0.1122-0.2123 0.2449-0.41309 0.3673-0.61964 0.9468-1.4879 2.0556-2.881 3.3571-4.0757 0.3137-0.28796 0.6463-0.55472 0.9694-0.83207 1.911-1.5232 4.0535-2.7191 6.2507-3.7732 0.5911-0.27739 1.2018-0.5063 1.8174-0.72166l1.9416 0.24631c-0.6663 0.19418-1.3278 0.40441-1.966 0.68043-0.306 0.1356-0.615 0.2649-0.9181 0.4068-1.9199 0.89863-3.7584 1.9885-5.4193 3.3084-0.7859 0.6794-1.1013 0.91473-1.8059 1.6683-0.9022 0.96481-1.6674 2.0495-2.3311 3.1891-0.3996 0.76324-0.719 1.3691-0.6085 2.2509h-2.1019z"/>
				<path d="m1011.1 97.761c0.071-0.76014 0.3558-1.4816 0.6618-2.1736 0.4326-0.8583 1.0144-1.6394 1.6963-2.3166 0.5019-0.49839 0.8095-0.72268 1.3612-1.1677 1.3633-1.0602 2.8504-1.9509 4.3931-2.7222 0.6691-0.33806 1.3687-0.60656 2.0706-0.86674l1.9675 0.24466c-0.7369 0.23898-1.4696 0.49511-2.1686 0.83207-1.5639 0.73834-3.074 1.6075-4.4379 2.6756-0.5585 0.44866-0.8257 0.63759-1.3294 1.1422-0.6556 0.65698-1.2026 1.4211-1.6017 2.259-0.2814 0.65376-0.5691 1.3669-0.5068 2.0932h-2.1061z"/>
				<path d="m1007.9 97.761c0.029-0.5316 0.038-1.0602 0.1538-1.5832 0.032-0.14504 0.076-0.28717 0.114-0.43076 0.3884-1.158 1.0287-2.2087 1.6402-3.2588 0.7323-1.1921 1.6082-2.2842 2.5193-3.3425 0.3712-0.43529 0.7661-0.84862 1.1597-1.2633l2.014 0.15887c-0.4276 0.40419-0.8583 0.80532-1.2517 1.2439-0.9375 1.0301-1.8261 2.1112-2.5551 3.3014-0.584 1.0333-1.1769 2.0762-1.5426 3.2108-0.035 0.13749-0.076 0.27345-0.1047 0.41247-0.1039 0.51188-0.1033 1.0334-0.053 1.5511h-2.0935z"/>
			</g>
		</g>
		<text style="word-spacing:0px;letter-spacing:0px" font-weight="300" font-size="35.111px" line-height="125%" y="-376.96219" x="204.76523" font-family="&apos;Open Sans&apos;" xml:space="preserve" fill="#333333"><tspan y="-376.96219" x="204.76523">Powered by</tspan></text>
	</g>
</svg>
