<svg xmlns:rdf="http://www.w3.org/1999/02/22-rdf-syntax-ns#" xmlns="http://www.w3.org/2000/svg" height="27.709mm" width="128mm" version="1.1" xmlns:cc="http://creativecommons.org/ns#" xmlns:dc="http://purl.org/dc/elements/1.1/" viewBox="0 0 453.54725 98.181738">
	<g transform="translate(1562.2 235.22)" fill="#333">
		<g transform="scale(1.0545 .94833)">
			<path style="" d="m-1312.1-229.43q-13.825 0-21.769 8.8482-7.9433 8.8482-7.9433 24.232 0 15.736 7.4908 24.433 7.4908 8.6974 21.417 8.6974 9.2504 0 16.993-2.3629v4.5247q-7.2897 2.564-18.199 2.564-15.484 0-24.383-10.005-8.8985-10.005-8.8985-27.952 0-11.211 4.223-19.758 4.2733-8.5466 12.217-13.172 7.9935-4.6755 18.551-4.6755 10.759 0 19.255 4.0219l-2.0613 4.6252q-8.0438-4.0219-16.892-4.0219z"/>
			<path style="" d="m-1247.9-185.44h-29.863l-10.256 25.941h-5.681l29.561-73.802h3.2678l28.958 73.802h-5.7815l-10.206-25.941zm-28.003-4.6252h26.293l-10.005-26.494q-1.2568-3.117-3.0164-8.6471-1.3574 4.8263-2.9662 8.7477l-10.306 26.394z"/>
			<g fill="#333">
				<path d="m-1169.5-196.95q0 18.501-9.7029 28.003-9.7028 9.4515-28.505 9.4515h-17.596v-73.5h19.858q17.596 0 26.746 9.2001 9.2001 9.2001 9.2001 26.846zm-5.5804.2011q0-15.786-8.0438-23.729-7.9936-7.9936-23.528-7.9936h-13.524v64.451h12.166q32.929 0 32.929-32.728z"/>
				<path d="m-1104.5-196.95q0 18.501-9.7029 28.003-9.7028 9.4515-28.505 9.4515h-17.596v-73.5h19.858q17.596 0 26.746 9.2001 9.2001 9.2001 9.2001 26.846zm-5.5804.2011q0-15.786-8.0438-23.729-7.9936-7.9936-23.528-7.9936h-13.524v64.451h12.166q32.929 0 32.929-32.728z"/>
				<path d="m-1078.4-192.78 21.517-40.219h5.5301l-24.483 45.096v28.405h-5.2787v-28.003l-24.584-45.498h5.8821l21.417 40.219z"/>
			</g>
		</g>
		<g transform="matrix(1.8403 0 0 1.8403 -3431.4 -859.23)">
			<path style="color:#000000;text-indent:0;block-progression:tb;text-decoration-line:none;text-transform:none" d="m1045.2 339.08c-10.192 0-20.836 8.2351-23.819 18.343l-4.9175 16.665c-2.9826 10.108 2.8012 18.343 12.994 18.343h16.656c10.192 0 20.836-8.2351 23.819-18.343l4.9175-16.665c2.9826-10.108-2.8012-18.343-12.994-18.343h-16.656zm-.7253 2.4577h16.656c8.7589 0 13.766 7.0421 11.156 15.885l-4.9175 16.665c-2.6094 8.8432-11.772 15.885-20.531 15.885h-16.656c-8.7589 0-13.766-7.0421-11.156-15.885l4.9175-16.665c2.6094-8.8432 11.772-15.885 20.531-15.885z"/>
			<g transform="matrix(2.5618 0 0 2.5618 -1556.5 131.33)">
				<path d="m1009.3 97.761c.03-.60776.1611-1.1863.4473-1.7279.1122-.21230.2449-.41309.3673-.61964.9468-1.4879 2.0556-2.881 3.3571-4.0757.3137-.28796.6463-.55472.9694-.83207 1.911-1.5232 4.0535-2.7191 6.2507-3.7732.5911-.27739 1.2018-.50630 1.8174-.72166l1.9416.24631c-.6663.19418-1.3278.40441-1.966.68043-.306.13560-.615.2649-.9181.40680-1.9199.89863-3.7584 1.9885-5.4193 3.3084-.7859.67940-1.1013.91473-1.8059 1.6683-.9022.96481-1.6674 2.0495-2.3311 3.1891-.3996.76324-.719 1.3691-.6085 2.2509h-2.1019z"/>
				<path d="m1011.1 97.761c.071-.76014.3558-1.4816.6618-2.1736.4326-.85830 1.0144-1.6394 1.6963-2.3166.5019-.49839.8095-.72268 1.3612-1.1677 1.3633-1.0602 2.8504-1.9509 4.3931-2.7222.6691-.33806 1.3687-.60656 2.0706-.86674l1.9675.24466c-.7369.23898-1.4696.49511-2.1686.83207-1.5639.73834-3.074 1.6075-4.4379 2.6756-.5585.44866-.8257.63759-1.3294 1.1422-.6556.65698-1.2026 1.4211-1.6017 2.259-.2814.65376-.5691 1.3669-.5068 2.0932h-2.1061z"/>
				<path d="m1007.9 97.761c.029-.53160.038-1.0602.1538-1.5832.032-.14504.076-.28717.114-.43076.3884-1.158 1.0287-2.2087 1.6402-3.2588.7323-1.1921 1.6082-2.2842 2.5193-3.3425.3712-.43529.7661-.84862 1.1597-1.2633l2.014.15887c-.4276.40419-.8583.80532-1.2517 1.2439-.9375 1.0301-1.8261 2.1112-2.5551 3.3014-.584 1.0333-1.1769 2.0762-1.5426 3.2108-.035.13749-.076.27345-.1047.41247-.1039.51188-.1033 1.0334-.053 1.5511h-2.0935z"/>
			</g>
		</g>
	</g>
</svg>
